solid CATIA STL
  facet normal  1.000000e+000  0.000000e+000  0.000000e+000
    outer loop
      vertex  2.250000e+000 -1.581139e+000  0.000000e+000
      vertex  2.250000e+000  1.581139e+000  0.000000e+000
      vertex  2.250000e+000 -1.581139e+000  1.300000e+001
    endloop
  endfacet
  facet normal  1.000000e+000  0.000000e+000  0.000000e+000
    outer loop
      vertex  2.250000e+000 -1.581139e+000  1.300000e+001
      vertex  2.250000e+000  1.581139e+000  0.000000e+000
      vertex  2.250000e+000  1.581139e+000  1.300000e+001
    endloop
  endfacet
  facet normal -9.964488e-001  8.420134e-002  0.000000e+000
    outer loop
      vertex -2.750000e+000  1.558012e-015  0.000000e+000
      vertex -2.750000e+000  1.558012e-015  1.300000e+001
      vertex -2.711006e+000  4.614634e-001  0.000000e+000
    endloop
  endfacet
  facet normal -9.964488e-001  8.420134e-002  0.000000e+000
    outer loop
      vertex -2.711006e+000  4.614634e-001  0.000000e+000
      vertex -2.750000e+000  1.558012e-015  1.300000e+001
      vertex -2.711006e+000  4.614634e-001  1.300000e+001
    endloop
  endfacet
  facet normal -9.681898e-001  2.502168e-001  0.000000e+000
    outer loop
      vertex -2.711006e+000  4.614634e-001  0.000000e+000
      vertex -2.711006e+000  4.614634e-001  1.300000e+001
      vertex -2.595128e+000  9.098398e-001  0.000000e+000
    endloop
  endfacet
  facet normal -9.681898e-001  2.502168e-001  0.000000e+000
    outer loop
      vertex -2.595128e+000  9.098398e-001  0.000000e+000
      vertex -2.711006e+000  4.614634e-001  1.300000e+001
      vertex -2.595128e+000  9.098398e-001  1.300000e+001
    endloop
  endfacet
  facet normal -9.124739e-001  4.091350e-001  0.000000e+000
    outer loop
      vertex -2.595128e+000  9.098398e-001  0.000000e+000
      vertex -2.595128e+000  9.098398e-001  1.300000e+001
      vertex -2.405655e+000  1.332414e+000  0.000000e+000
    endloop
  endfacet
  facet normal -9.124739e-001  4.091350e-001  0.000000e+000
    outer loop
      vertex -2.405655e+000  1.332414e+000  0.000000e+000
      vertex -2.595128e+000  9.098398e-001  1.300000e+001
      vertex -2.405655e+000  1.332414e+000  1.300000e+001
    endloop
  endfacet
  facet normal -8.308801e-001  5.564515e-001  0.000000e+000
    outer loop
      vertex -2.405655e+000  1.332414e+000  0.000000e+000
      vertex -2.405655e+000  1.332414e+000  1.300000e+001
      vertex -2.147958e+000  1.717201e+000  0.000000e+000
    endloop
  endfacet
  facet normal -8.308801e-001  5.564515e-001  0.000000e+000
    outer loop
      vertex -2.147958e+000  1.717201e+000  0.000000e+000
      vertex -2.405655e+000  1.332414e+000  1.300000e+001
      vertex -2.147958e+000  1.717201e+000  1.300000e+001
    endloop
  endfacet
  facet normal -7.257229e-001  6.879871e-001  0.000000e+000
    outer loop
      vertex -2.147958e+000  1.717201e+000  0.000000e+000
      vertex -2.147958e+000  1.717201e+000  1.300000e+001
      vertex -1.829345e+000  2.053289e+000  0.000000e+000
    endloop
  endfacet
  facet normal -7.257229e-001  6.879871e-001  0.000000e+000
    outer loop
      vertex -1.829345e+000  2.053289e+000  0.000000e+000
      vertex -2.147958e+000  1.717201e+000  1.300000e+001
      vertex -1.829345e+000  2.053289e+000  1.300000e+001
    endloop
  endfacet
  facet normal -5.999854e-001  8.000110e-001  0.000000e+000
    outer loop
      vertex -1.829345e+000  2.053289e+000  0.000000e+000
      vertex -1.829345e+000  2.053289e+000  1.300000e+001
      vertex -1.458854e+000  2.331147e+000  0.000000e+000
    endloop
  endfacet
  facet normal -5.999854e-001  8.000110e-001  0.000000e+000
    outer loop
      vertex -1.458854e+000  2.331147e+000  0.000000e+000
      vertex -1.829345e+000  2.053289e+000  1.300000e+001
      vertex -1.458854e+000  2.331147e+000  1.300000e+001
    endloop
  endfacet
  facet normal -4.572316e-001  8.893477e-001  0.000000e+000
    outer loop
      vertex -1.458854e+000  2.331147e+000  0.000000e+000
      vertex -1.458854e+000  2.331147e+000  1.300000e+001
      vertex -1.046990e+000  2.542895e+000  0.000000e+000
    endloop
  endfacet
  facet normal -4.572316e-001  8.893477e-001  0.000000e+000
    outer loop
      vertex -1.046990e+000  2.542895e+000  0.000000e+000
      vertex -1.458854e+000  2.331147e+000  1.300000e+001
      vertex -1.046990e+000  2.542895e+000  1.300000e+001
    endloop
  endfacet
  facet normal -3.015112e-001  9.534627e-001  0.000000e+000
    outer loop
      vertex -1.046990e+000  2.542895e+000  0.000000e+000
      vertex -1.046990e+000  2.542895e+000  1.300000e+001
      vertex -6.054336e-001  2.682527e+000  0.000000e+000
    endloop
  endfacet
  facet normal -3.015112e-001  9.534627e-001  0.000000e+000
    outer loop
      vertex -6.054336e-001  2.682527e+000  0.000000e+000
      vertex -1.046990e+000  2.542895e+000  1.300000e+001
      vertex -6.054336e-001  2.682527e+000  1.300000e+001
    endloop
  endfacet
  facet normal -1.372405e-001  9.905378e-001  0.000000e+000
    outer loop
      vertex -6.054336e-001  2.682527e+000  0.000000e+000
      vertex -6.054336e-001  2.682527e+000  1.300000e+001
      vertex -1.467077e-001  2.746084e+000  0.000000e+000
    endloop
  endfacet
  facet normal -1.372405e-001  9.905378e-001  0.000000e+000
    outer loop
      vertex -1.467077e-001  2.746084e+000  0.000000e+000
      vertex -6.054336e-001  2.682527e+000  1.300000e+001
      vertex -1.467077e-001  2.746084e+000  1.300000e+001
    endloop
  endfacet
  facet normal  3.092284e-002  9.995218e-001  0.000000e+000
    outer loop
      vertex -1.467077e-001  2.746084e+000  0.000000e+000
      vertex -1.467077e-001  2.746084e+000  1.300000e+001
      vertex  3.161788e-001  2.731763e+000  0.000000e+000
    endloop
  endfacet
  facet normal  3.092284e-002  9.995218e-001  0.000000e+000
    outer loop
      vertex  3.161788e-001  2.731763e+000  0.000000e+000
      vertex -1.467077e-001  2.746084e+000  1.300000e+001
      vertex  3.161788e-001  2.731763e+000  1.300000e+001
    endloop
  endfacet
  facet normal  1.982089e-001  9.801598e-001  0.000000e+000
    outer loop
      vertex  3.161788e-001  2.731763e+000  0.000000e+000
      vertex  3.161788e-001  2.731763e+000  1.300000e+001
      vertex  7.700986e-001  2.639971e+000  0.000000e+000
    endloop
  endfacet
  facet normal  1.982089e-001  9.801598e-001  0.000000e+000
    outer loop
      vertex  7.700986e-001  2.639971e+000  0.000000e+000
      vertex  3.161788e-001  2.731763e+000  1.300000e+001
      vertex  7.700986e-001  2.639971e+000  1.300000e+001
    endloop
  endfacet
  facet normal  3.598740e-001  9.330009e-001  0.000000e+000
    outer loop
      vertex  7.700986e-001  2.639971e+000  0.000000e+000
      vertex  7.700986e-001  2.639971e+000  1.300000e+001
      vertex  1.202179e+000  2.473311e+000  0.000000e+000
    endloop
  endfacet
  facet normal  3.598740e-001  9.330009e-001  0.000000e+000
    outer loop
      vertex  1.202179e+000  2.473311e+000  0.000000e+000
      vertex  7.700986e-001  2.639971e+000  1.300000e+001
      vertex  1.202179e+000  2.473311e+000  1.300000e+001
    endloop
  endfacet
  facet normal  5.113330e-001  8.593827e-001  0.000000e+000
    outer loop
      vertex  1.202179e+000  2.473311e+000  0.000000e+000
      vertex  1.202179e+000  2.473311e+000  1.300000e+001
      vertex  1.600166e+000  2.236508e+000  0.000000e+000
    endloop
  endfacet
  facet normal  5.113330e-001  8.593827e-001  0.000000e+000
    outer loop
      vertex  1.600166e+000  2.236508e+000  0.000000e+000
      vertex  1.202179e+000  2.473311e+000  1.300000e+001
      vertex  1.600166e+000  2.236508e+000  1.300000e+001
    endloop
  endfacet
  facet normal  6.482912e-001  7.613925e-001  0.000000e+000
    outer loop
      vertex  1.600166e+000  2.236508e+000  0.000000e+000
      vertex  1.600166e+000  2.236508e+000  1.300000e+001
      vertex  1.952773e+000  1.936280e+000  0.000000e+000
    endloop
  endfacet
  facet normal  6.482912e-001  7.613925e-001  0.000000e+000
    outer loop
      vertex  1.952773e+000  1.936280e+000  0.000000e+000
      vertex  1.600166e+000  2.236508e+000  1.300000e+001
      vertex  1.952773e+000  1.936280e+000  1.300000e+001
    endloop
  endfacet
  facet normal  7.668638e-001  6.418099e-001  0.000000e+000
    outer loop
      vertex  1.952773e+000  1.936280e+000  0.000000e+000
      vertex  1.952773e+000  1.936280e+000  1.300000e+001
      vertex  2.250000e+000  1.581139e+000  0.000000e+000
    endloop
  endfacet
  facet normal  7.668638e-001  6.418099e-001  0.000000e+000
    outer loop
      vertex  2.250000e+000  1.581139e+000  0.000000e+000
      vertex  1.952773e+000  1.936280e+000  1.300000e+001
      vertex  2.250000e+000  1.581139e+000  1.300000e+001
    endloop
  endfacet
  facet normal  7.668638e-001 -6.418099e-001  0.000000e+000
    outer loop
      vertex  2.250000e+000 -1.581139e+000  0.000000e+000
      vertex  2.250000e+000 -1.581139e+000  1.300000e+001
      vertex  1.952773e+000 -1.936280e+000  0.000000e+000
    endloop
  endfacet
  facet normal  7.668638e-001 -6.418099e-001  0.000000e+000
    outer loop
      vertex  1.952773e+000 -1.936280e+000  0.000000e+000
      vertex  2.250000e+000 -1.581139e+000  1.300000e+001
      vertex  1.952773e+000 -1.936280e+000  1.300000e+001
    endloop
  endfacet
  facet normal  6.482912e-001 -7.613925e-001  0.000000e+000
    outer loop
      vertex  1.952773e+000 -1.936280e+000  0.000000e+000
      vertex  1.952773e+000 -1.936280e+000  1.300000e+001
      vertex  1.600166e+000 -2.236508e+000  0.000000e+000
    endloop
  endfacet
  facet normal  6.482912e-001 -7.613925e-001  0.000000e+000
    outer loop
      vertex  1.600166e+000 -2.236508e+000  0.000000e+000
      vertex  1.952773e+000 -1.936280e+000  1.300000e+001
      vertex  1.600166e+000 -2.236508e+000  1.300000e+001
    endloop
  endfacet
  facet normal  5.113330e-001 -8.593827e-001  0.000000e+000
    outer loop
      vertex  1.600166e+000 -2.236508e+000  0.000000e+000
      vertex  1.600166e+000 -2.236508e+000  1.300000e+001
      vertex  1.202179e+000 -2.473311e+000  0.000000e+000
    endloop
  endfacet
  facet normal  5.113330e-001 -8.593827e-001  0.000000e+000
    outer loop
      vertex  1.202179e+000 -2.473311e+000  0.000000e+000
      vertex  1.600166e+000 -2.236508e+000  1.300000e+001
      vertex  1.202179e+000 -2.473311e+000  1.300000e+001
    endloop
  endfacet
  facet normal  3.598740e-001 -9.330009e-001  0.000000e+000
    outer loop
      vertex  1.202179e+000 -2.473311e+000  0.000000e+000
      vertex  1.202179e+000 -2.473311e+000  1.300000e+001
      vertex  7.700986e-001 -2.639971e+000  0.000000e+000
    endloop
  endfacet
  facet normal  3.598740e-001 -9.330009e-001  0.000000e+000
    outer loop
      vertex  7.700986e-001 -2.639971e+000  0.000000e+000
      vertex  1.202179e+000 -2.473311e+000  1.300000e+001
      vertex  7.700986e-001 -2.639971e+000  1.300000e+001
    endloop
  endfacet
  facet normal  1.982089e-001 -9.801598e-001  0.000000e+000
    outer loop
      vertex  7.700986e-001 -2.639971e+000  0.000000e+000
      vertex  7.700986e-001 -2.639971e+000  1.300000e+001
      vertex  3.161788e-001 -2.731763e+000  0.000000e+000
    endloop
  endfacet
  facet normal  1.982089e-001 -9.801598e-001  0.000000e+000
    outer loop
      vertex  3.161788e-001 -2.731763e+000  0.000000e+000
      vertex  7.700986e-001 -2.639971e+000  1.300000e+001
      vertex  3.161788e-001 -2.731763e+000  1.300000e+001
    endloop
  endfacet
  facet normal  3.092284e-002 -9.995218e-001  0.000000e+000
    outer loop
      vertex  3.161788e-001 -2.731763e+000  0.000000e+000
      vertex  3.161788e-001 -2.731763e+000  1.300000e+001
      vertex -1.467077e-001 -2.746084e+000  0.000000e+000
    endloop
  endfacet
  facet normal  3.092284e-002 -9.995218e-001  0.000000e+000
    outer loop
      vertex -1.467077e-001 -2.746084e+000  0.000000e+000
      vertex  3.161788e-001 -2.731763e+000  1.300000e+001
      vertex -1.467077e-001 -2.746084e+000  1.300000e+001
    endloop
  endfacet
  facet normal -1.372405e-001 -9.905378e-001  0.000000e+000
    outer loop
      vertex -1.467077e-001 -2.746084e+000  0.000000e+000
      vertex -1.467077e-001 -2.746084e+000  1.300000e+001
      vertex -6.054336e-001 -2.682527e+000  0.000000e+000
    endloop
  endfacet
  facet normal -1.372405e-001 -9.905378e-001  0.000000e+000
    outer loop
      vertex -6.054336e-001 -2.682527e+000  0.000000e+000
      vertex -1.467077e-001 -2.746084e+000  1.300000e+001
      vertex -6.054336e-001 -2.682527e+000  1.300000e+001
    endloop
  endfacet
  facet normal -3.015112e-001 -9.534627e-001  0.000000e+000
    outer loop
      vertex -6.054336e-001 -2.682527e+000  0.000000e+000
      vertex -6.054336e-001 -2.682527e+000  1.300000e+001
      vertex -1.046990e+000 -2.542895e+000  0.000000e+000
    endloop
  endfacet
  facet normal -3.015112e-001 -9.534627e-001  0.000000e+000
    outer loop
      vertex -1.046990e+000 -2.542895e+000  0.000000e+000
      vertex -6.054336e-001 -2.682527e+000  1.300000e+001
      vertex -1.046990e+000 -2.542895e+000  1.300000e+001
    endloop
  endfacet
  facet normal -4.572316e-001 -8.893477e-001  0.000000e+000
    outer loop
      vertex -1.046990e+000 -2.542895e+000  0.000000e+000
      vertex -1.046990e+000 -2.542895e+000  1.300000e+001
      vertex -1.458854e+000 -2.331147e+000  0.000000e+000
    endloop
  endfacet
  facet normal -4.572316e-001 -8.893477e-001  0.000000e+000
    outer loop
      vertex -1.458854e+000 -2.331147e+000  0.000000e+000
      vertex -1.046990e+000 -2.542895e+000  1.300000e+001
      vertex -1.458854e+000 -2.331147e+000  1.300000e+001
    endloop
  endfacet
  facet normal -5.999854e-001 -8.000110e-001  0.000000e+000
    outer loop
      vertex -1.458854e+000 -2.331147e+000  0.000000e+000
      vertex -1.458854e+000 -2.331147e+000  1.300000e+001
      vertex -1.829345e+000 -2.053289e+000  0.000000e+000
    endloop
  endfacet
  facet normal -5.999854e-001 -8.000110e-001  0.000000e+000
    outer loop
      vertex -1.829345e+000 -2.053289e+000  0.000000e+000
      vertex -1.458854e+000 -2.331147e+000  1.300000e+001
      vertex -1.829345e+000 -2.053289e+000  1.300000e+001
    endloop
  endfacet
  facet normal -7.257229e-001 -6.879871e-001  0.000000e+000
    outer loop
      vertex -1.829345e+000 -2.053289e+000  0.000000e+000
      vertex -1.829345e+000 -2.053289e+000  1.300000e+001
      vertex -2.147958e+000 -1.717201e+000  0.000000e+000
    endloop
  endfacet
  facet normal -7.257229e-001 -6.879871e-001  0.000000e+000
    outer loop
      vertex -2.147958e+000 -1.717201e+000  0.000000e+000
      vertex -1.829345e+000 -2.053289e+000  1.300000e+001
      vertex -2.147958e+000 -1.717201e+000  1.300000e+001
    endloop
  endfacet
  facet normal -8.308801e-001 -5.564515e-001  0.000000e+000
    outer loop
      vertex -2.147958e+000 -1.717201e+000  0.000000e+000
      vertex -2.147958e+000 -1.717201e+000  1.300000e+001
      vertex -2.405655e+000 -1.332414e+000  0.000000e+000
    endloop
  endfacet
  facet normal -8.308801e-001 -5.564515e-001  0.000000e+000
    outer loop
      vertex -2.405655e+000 -1.332414e+000  0.000000e+000
      vertex -2.147958e+000 -1.717201e+000  1.300000e+001
      vertex -2.405655e+000 -1.332414e+000  1.300000e+001
    endloop
  endfacet
  facet normal -9.124739e-001 -4.091350e-001  0.000000e+000
    outer loop
      vertex -2.405655e+000 -1.332414e+000  0.000000e+000
      vertex -2.405655e+000 -1.332414e+000  1.300000e+001
      vertex -2.595128e+000 -9.098398e-001  0.000000e+000
    endloop
  endfacet
  facet normal -9.124739e-001 -4.091350e-001  0.000000e+000
    outer loop
      vertex -2.595128e+000 -9.098398e-001  0.000000e+000
      vertex -2.405655e+000 -1.332414e+000  1.300000e+001
      vertex -2.595128e+000 -9.098398e-001  1.300000e+001
    endloop
  endfacet
  facet normal -9.681898e-001 -2.502168e-001  0.000000e+000
    outer loop
      vertex -2.595128e+000 -9.098398e-001  0.000000e+000
      vertex -2.595128e+000 -9.098398e-001  1.300000e+001
      vertex -2.711006e+000 -4.614634e-001  0.000000e+000
    endloop
  endfacet
  facet normal -9.681898e-001 -2.502168e-001  0.000000e+000
    outer loop
      vertex -2.711006e+000 -4.614634e-001  0.000000e+000
      vertex -2.595128e+000 -9.098398e-001  1.300000e+001
      vertex -2.711006e+000 -4.614634e-001  1.300000e+001
    endloop
  endfacet
  facet normal -9.964488e-001 -8.420134e-002  0.000000e+000
    outer loop
      vertex -2.711006e+000 -4.614634e-001  0.000000e+000
      vertex -2.711006e+000 -4.614634e-001  1.300000e+001
      vertex -2.750000e+000  1.558012e-015  0.000000e+000
    endloop
  endfacet
  facet normal -9.964488e-001 -8.420134e-002  0.000000e+000
    outer loop
      vertex -2.750000e+000  1.558012e-015  0.000000e+000
      vertex -2.711006e+000 -4.614634e-001  1.300000e+001
      vertex -2.750000e+000  1.558012e-015  1.300000e+001
    endloop
  endfacet
  facet normal  0.000000e+000  0.000000e+000 -1.000000e+000
    outer loop
      vertex  2.250000e+000  1.581139e+000  0.000000e+000
      vertex  2.250000e+000 -1.581139e+000  0.000000e+000
      vertex  1.000000e+000 -1.118034e+000  0.000000e+000
    endloop
  endfacet
  facet normal  0.000000e+000  0.000000e+000 -1.000000e+000
    outer loop
      vertex  2.250000e+000  1.581139e+000  0.000000e+000
      vertex  1.000000e+000 -1.118034e+000  0.000000e+000
      vertex  1.000000e+000  1.118034e+000  0.000000e+000
    endloop
  endfacet
  facet normal  0.000000e+000  0.000000e+000 -1.000000e+000
    outer loop
      vertex  2.250000e+000  1.581139e+000  0.000000e+000
      vertex  1.000000e+000  1.118034e+000  0.000000e+000
      vertex  7.187108e-001  1.316607e+000  0.000000e+000
    endloop
  endfacet
  facet normal  0.000000e+000  0.000000e+000 -1.000000e+000
    outer loop
      vertex  2.250000e+000  1.581139e+000  0.000000e+000
      vertex  7.187108e-001  1.316607e+000  0.000000e+000
      vertex  3.995519e-001  1.445807e+000  0.000000e+000
    endloop
  endfacet
  facet normal  0.000000e+000  0.000000e+000 -1.000000e+000
    outer loop
      vertex  2.250000e+000  1.581139e+000  0.000000e+000
      vertex  3.995519e-001  1.445807e+000  0.000000e+000
      vertex  5.934020e-002  1.498826e+000  0.000000e+000
    endloop
  endfacet
  facet normal  0.000000e+000  0.000000e+000 -1.000000e+000
    outer loop
      vertex  2.250000e+000 -1.581139e+000  0.000000e+000
      vertex  5.934020e-002 -1.498826e+000  0.000000e+000
      vertex  3.995519e-001 -1.445807e+000  0.000000e+000
    endloop
  endfacet
  facet normal  0.000000e+000  0.000000e+000 -1.000000e+000
    outer loop
      vertex  2.250000e+000 -1.581139e+000  0.000000e+000
      vertex  3.995519e-001 -1.445807e+000  0.000000e+000
      vertex  7.187108e-001 -1.316607e+000  0.000000e+000
    endloop
  endfacet
  facet normal  0.000000e+000  0.000000e+000 -1.000000e+000
    outer loop
      vertex  2.250000e+000 -1.581139e+000  0.000000e+000
      vertex  7.187108e-001 -1.316607e+000  0.000000e+000
      vertex  1.000000e+000 -1.118034e+000  0.000000e+000
    endloop
  endfacet
  facet normal  0.000000e+000  0.000000e+000 -1.000000e+000
    outer loop
      vertex -2.147958e+000 -1.717201e+000  0.000000e+000
      vertex -6.054336e-001 -2.682527e+000  0.000000e+000
      vertex -1.046990e+000 -2.542895e+000  0.000000e+000
    endloop
  endfacet
  facet normal  0.000000e+000  0.000000e+000 -1.000000e+000
    outer loop
      vertex -2.147958e+000 -1.717201e+000  0.000000e+000
      vertex -1.046990e+000 -2.542895e+000  0.000000e+000
      vertex -1.458854e+000 -2.331147e+000  0.000000e+000
    endloop
  endfacet
  facet normal  0.000000e+000  0.000000e+000 -1.000000e+000
    outer loop
      vertex -2.147958e+000 -1.717201e+000  0.000000e+000
      vertex -1.458854e+000 -2.331147e+000  0.000000e+000
      vertex -1.829345e+000 -2.053289e+000  0.000000e+000
    endloop
  endfacet
  facet normal  0.000000e+000  0.000000e+000 -1.000000e+000
    outer loop
      vertex  5.934020e-002 -1.498826e+000  0.000000e+000
      vertex  2.250000e+000 -1.581139e+000  0.000000e+000
      vertex  1.952773e+000 -1.936280e+000  0.000000e+000
    endloop
  endfacet
  facet normal  0.000000e+000  0.000000e+000 -1.000000e+000
    outer loop
      vertex  5.934020e-002 -1.498826e+000  0.000000e+000
      vertex  1.952773e+000 -1.936280e+000  0.000000e+000
      vertex  1.600166e+000 -2.236508e+000  0.000000e+000
    endloop
  endfacet
  facet normal  0.000000e+000  0.000000e+000 -1.000000e+000
    outer loop
      vertex  5.934020e-002 -1.498826e+000  0.000000e+000
      vertex  1.600166e+000 -2.236508e+000  0.000000e+000
      vertex  1.202179e+000 -2.473311e+000  0.000000e+000
    endloop
  endfacet
  facet normal  0.000000e+000  0.000000e+000 -1.000000e+000
    outer loop
      vertex  5.934020e-002 -1.498826e+000  0.000000e+000
      vertex  1.202179e+000 -2.473311e+000  0.000000e+000
      vertex  7.700986e-001 -2.639971e+000  0.000000e+000
    endloop
  endfacet
  facet normal  0.000000e+000  0.000000e+000 -1.000000e+000
    outer loop
      vertex  5.934020e-002 -1.498826e+000  0.000000e+000
      vertex  7.700986e-001 -2.639971e+000  0.000000e+000
      vertex  3.161788e-001 -2.731763e+000  0.000000e+000
    endloop
  endfacet
  facet normal  0.000000e+000  0.000000e+000 -1.000000e+000
    outer loop
      vertex -2.147958e+000  1.717201e+000  0.000000e+000
      vertex -1.829345e+000  2.053289e+000  0.000000e+000
      vertex -1.458854e+000  2.331147e+000  0.000000e+000
    endloop
  endfacet
  facet normal  0.000000e+000  0.000000e+000 -1.000000e+000
    outer loop
      vertex -2.147958e+000  1.717201e+000  0.000000e+000
      vertex -1.458854e+000  2.331147e+000  0.000000e+000
      vertex -1.046990e+000  2.542895e+000  0.000000e+000
    endloop
  endfacet
  facet normal  0.000000e+000  0.000000e+000 -1.000000e+000
    outer loop
      vertex -2.147958e+000  1.717201e+000  0.000000e+000
      vertex -1.046990e+000  2.542895e+000  0.000000e+000
      vertex -6.054336e-001  2.682527e+000  0.000000e+000
    endloop
  endfacet
  facet normal  0.000000e+000  0.000000e+000 -1.000000e+000
    outer loop
      vertex -2.147958e+000  1.717201e+000  0.000000e+000
      vertex -6.054336e-001  2.682527e+000  0.000000e+000
      vertex -2.839982e-001  1.472870e+000  0.000000e+000
    endloop
  endfacet
  facet normal  0.000000e+000  0.000000e+000 -1.000000e+000
    outer loop
      vertex -2.147958e+000  1.717201e+000  0.000000e+000
      vertex -2.839982e-001  1.472870e+000  0.000000e+000
      vertex -6.123725e-001  1.369306e+000  0.000000e+000
    endloop
  endfacet
  facet normal  0.000000e+000  0.000000e+000 -1.000000e+000
    outer loop
      vertex -2.147958e+000  1.717201e+000  0.000000e+000
      vertex -6.123725e-001  1.369306e+000  0.000000e+000
      vertex -2.405655e+000  1.332414e+000  0.000000e+000
    endloop
  endfacet
  facet normal  0.000000e+000  0.000000e+000 -1.000000e+000
    outer loop
      vertex  5.934020e-002  1.498826e+000  0.000000e+000
      vertex -2.839982e-001  1.472870e+000  0.000000e+000
      vertex -6.054336e-001  2.682527e+000  0.000000e+000
    endloop
  endfacet
  facet normal  0.000000e+000  0.000000e+000 -1.000000e+000
    outer loop
      vertex  5.934020e-002  1.498826e+000  0.000000e+000
      vertex -6.054336e-001  2.682527e+000  0.000000e+000
      vertex -1.467077e-001  2.746084e+000  0.000000e+000
    endloop
  endfacet
  facet normal  0.000000e+000  0.000000e+000 -1.000000e+000
    outer loop
      vertex  5.934020e-002  1.498826e+000  0.000000e+000
      vertex -1.467077e-001  2.746084e+000  0.000000e+000
      vertex  3.161788e-001  2.731763e+000  0.000000e+000
    endloop
  endfacet
  facet normal  0.000000e+000  0.000000e+000 -1.000000e+000
    outer loop
      vertex  5.934020e-002  1.498826e+000  0.000000e+000
      vertex  3.161788e-001  2.731763e+000  0.000000e+000
      vertex  7.700986e-001  2.639971e+000  0.000000e+000
    endloop
  endfacet
  facet normal  0.000000e+000  0.000000e+000 -1.000000e+000
    outer loop
      vertex  5.934020e-002  1.498826e+000  0.000000e+000
      vertex  7.700986e-001  2.639971e+000  0.000000e+000
      vertex  1.202179e+000  2.473311e+000  0.000000e+000
    endloop
  endfacet
  facet normal  0.000000e+000  0.000000e+000 -1.000000e+000
    outer loop
      vertex  5.934020e-002  1.498826e+000  0.000000e+000
      vertex  1.202179e+000  2.473311e+000  0.000000e+000
      vertex  1.600166e+000  2.236508e+000  0.000000e+000
    endloop
  endfacet
  facet normal  0.000000e+000  0.000000e+000 -1.000000e+000
    outer loop
      vertex  5.934020e-002  1.498826e+000  0.000000e+000
      vertex  1.600166e+000  2.236508e+000  0.000000e+000
      vertex  1.952773e+000  1.936280e+000  0.000000e+000
    endloop
  endfacet
  facet normal  0.000000e+000  0.000000e+000 -1.000000e+000
    outer loop
      vertex  5.934020e-002  1.498826e+000  0.000000e+000
      vertex  1.952773e+000  1.936280e+000  0.000000e+000
      vertex  2.250000e+000  1.581139e+000  0.000000e+000
    endloop
  endfacet
  facet normal  0.000000e+000  0.000000e+000 -1.000000e+000
    outer loop
      vertex  5.934020e-002 -1.498826e+000  0.000000e+000
      vertex  3.161788e-001 -2.731763e+000  0.000000e+000
      vertex -2.839982e-001 -1.472870e+000  0.000000e+000
    endloop
  endfacet
  facet normal  0.000000e+000  0.000000e+000 -1.000000e+000
    outer loop
      vertex -2.839982e-001 -1.472870e+000  0.000000e+000
      vertex  3.161788e-001 -2.731763e+000  0.000000e+000
      vertex -1.467077e-001 -2.746084e+000  0.000000e+000
    endloop
  endfacet
  facet normal  0.000000e+000  0.000000e+000 -1.000000e+000
    outer loop
      vertex -2.839982e-001 -1.472870e+000  0.000000e+000
      vertex -1.467077e-001 -2.746084e+000  0.000000e+000
      vertex -2.147958e+000 -1.717201e+000  0.000000e+000
    endloop
  endfacet
  facet normal  0.000000e+000  0.000000e+000 -1.000000e+000
    outer loop
      vertex -2.147958e+000 -1.717201e+000  0.000000e+000
      vertex -1.467077e-001 -2.746084e+000  0.000000e+000
      vertex -6.054336e-001 -2.682527e+000  0.000000e+000
    endloop
  endfacet
  facet normal  0.000000e+000  0.000000e+000 -1.000000e+000
    outer loop
      vertex -2.405655e+000  1.332414e+000  0.000000e+000
      vertex -6.123725e-001  1.369306e+000  0.000000e+000
      vertex -2.595128e+000  9.098398e-001  0.000000e+000
    endloop
  endfacet
  facet normal  0.000000e+000  0.000000e+000 -1.000000e+000
    outer loop
      vertex -2.595128e+000  9.098398e-001  0.000000e+000
      vertex -6.123725e-001  1.369306e+000  0.000000e+000
      vertex -9.084801e-001  1.193593e+000  0.000000e+000
    endloop
  endfacet
  facet normal  0.000000e+000  0.000000e+000 -1.000000e+000
    outer loop
      vertex -2.595128e+000  9.098398e-001  0.000000e+000
      vertex -9.084801e-001  1.193593e+000  0.000000e+000
      vertex -1.156719e+000  9.549876e-001  0.000000e+000
    endloop
  endfacet
  facet normal  0.000000e+000  0.000000e+000 -1.000000e+000
    outer loop
      vertex -2.595128e+000  9.098398e-001  0.000000e+000
      vertex -1.156719e+000  9.549876e-001  0.000000e+000
      vertex -2.711006e+000  4.614634e-001  0.000000e+000
    endloop
  endfacet
  facet normal  0.000000e+000  0.000000e+000 -1.000000e+000
    outer loop
      vertex -2.711006e+000  4.614634e-001  0.000000e+000
      vertex -1.156719e+000  9.549876e-001  0.000000e+000
      vertex -1.344009e+000  6.660630e-001  0.000000e+000
    endloop
  endfacet
  facet normal  0.000000e+000  0.000000e+000 -1.000000e+000
    outer loop
      vertex -2.711006e+000  4.614634e-001  0.000000e+000
      vertex -1.344009e+000  6.660630e-001  0.000000e+000
      vertex -1.460482e+000  3.420428e-001  0.000000e+000
    endloop
  endfacet
  facet normal  0.000000e+000  0.000000e+000 -1.000000e+000
    outer loop
      vertex -2.711006e+000  4.614634e-001  0.000000e+000
      vertex -1.460482e+000  3.420428e-001  0.000000e+000
      vertex -2.750000e+000  1.558012e-015  0.000000e+000
    endloop
  endfacet
  facet normal  0.000000e+000  0.000000e+000 -1.000000e+000
    outer loop
      vertex -2.750000e+000  1.558012e-015  0.000000e+000
      vertex -1.460482e+000  3.420428e-001  0.000000e+000
      vertex -1.500000e+000  1.836910e-016  0.000000e+000
    endloop
  endfacet
  facet normal  0.000000e+000  0.000000e+000 -1.000000e+000
    outer loop
      vertex -2.750000e+000  1.558012e-015  0.000000e+000
      vertex -1.500000e+000  1.836910e-016  0.000000e+000
      vertex -2.711006e+000 -4.614634e-001  0.000000e+000
    endloop
  endfacet
  facet normal  0.000000e+000  0.000000e+000 -1.000000e+000
    outer loop
      vertex -2.711006e+000 -4.614634e-001  0.000000e+000
      vertex -1.500000e+000  1.836910e-016  0.000000e+000
      vertex -1.460482e+000 -3.420428e-001  0.000000e+000
    endloop
  endfacet
  facet normal  0.000000e+000  0.000000e+000 -1.000000e+000
    outer loop
      vertex -2.711006e+000 -4.614634e-001  0.000000e+000
      vertex -1.460482e+000 -3.420428e-001  0.000000e+000
      vertex -2.595128e+000 -9.098398e-001  0.000000e+000
    endloop
  endfacet
  facet normal  0.000000e+000  0.000000e+000 -1.000000e+000
    outer loop
      vertex -2.595128e+000 -9.098398e-001  0.000000e+000
      vertex -1.460482e+000 -3.420428e-001  0.000000e+000
      vertex -1.344009e+000 -6.660630e-001  0.000000e+000
    endloop
  endfacet
  facet normal  0.000000e+000  0.000000e+000 -1.000000e+000
    outer loop
      vertex -2.595128e+000 -9.098398e-001  0.000000e+000
      vertex -1.344009e+000 -6.660630e-001  0.000000e+000
      vertex -1.156719e+000 -9.549876e-001  0.000000e+000
    endloop
  endfacet
  facet normal  0.000000e+000  0.000000e+000 -1.000000e+000
    outer loop
      vertex -2.595128e+000 -9.098398e-001  0.000000e+000
      vertex -1.156719e+000 -9.549876e-001  0.000000e+000
      vertex -2.405655e+000 -1.332414e+000  0.000000e+000
    endloop
  endfacet
  facet normal  0.000000e+000  0.000000e+000 -1.000000e+000
    outer loop
      vertex -2.405655e+000 -1.332414e+000  0.000000e+000
      vertex -1.156719e+000 -9.549876e-001  0.000000e+000
      vertex -9.084801e-001 -1.193593e+000  0.000000e+000
    endloop
  endfacet
  facet normal  0.000000e+000  0.000000e+000 -1.000000e+000
    outer loop
      vertex -2.405655e+000 -1.332414e+000  0.000000e+000
      vertex -9.084801e-001 -1.193593e+000  0.000000e+000
      vertex -6.123725e-001 -1.369306e+000  0.000000e+000
    endloop
  endfacet
  facet normal  0.000000e+000  0.000000e+000 -1.000000e+000
    outer loop
      vertex -2.839982e-001 -1.472870e+000  0.000000e+000
      vertex -2.147958e+000 -1.717201e+000  0.000000e+000
      vertex -6.123725e-001 -1.369306e+000  0.000000e+000
    endloop
  endfacet
  facet normal  0.000000e+000  0.000000e+000 -1.000000e+000
    outer loop
      vertex -6.123725e-001 -1.369306e+000  0.000000e+000
      vertex -2.147958e+000 -1.717201e+000  0.000000e+000
      vertex -2.405655e+000 -1.332414e+000  0.000000e+000
    endloop
  endfacet
  facet normal  0.000000e+000  0.000000e+000  1.000000e+000
    outer loop
      vertex  2.250000e+000  1.581139e+000  1.300000e+001
      vertex  5.934020e-002  1.498826e+000  1.300000e+001
      vertex  3.995519e-001  1.445807e+000  1.300000e+001
    endloop
  endfacet
  facet normal  0.000000e+000  0.000000e+000  1.000000e+000
    outer loop
      vertex  2.250000e+000  1.581139e+000  1.300000e+001
      vertex  3.995519e-001  1.445807e+000  1.300000e+001
      vertex  7.187108e-001  1.316607e+000  1.300000e+001
    endloop
  endfacet
  facet normal  0.000000e+000  0.000000e+000  1.000000e+000
    outer loop
      vertex  2.250000e+000  1.581139e+000  1.300000e+001
      vertex  7.187108e-001  1.316607e+000  1.300000e+001
      vertex  1.000000e+000  1.118034e+000  1.300000e+001
    endloop
  endfacet
  facet normal  0.000000e+000  0.000000e+000  1.000000e+000
    outer loop
      vertex  2.250000e+000  1.581139e+000  1.300000e+001
      vertex  1.000000e+000  1.118034e+000  1.300000e+001
      vertex  1.000000e+000 -1.118034e+000  1.300000e+001
    endloop
  endfacet
  facet normal  0.000000e+000  0.000000e+000  1.000000e+000
    outer loop
      vertex  2.250000e+000  1.581139e+000  1.300000e+001
      vertex  1.000000e+000 -1.118034e+000  1.300000e+001
      vertex  2.250000e+000 -1.581139e+000  1.300000e+001
    endloop
  endfacet
  facet normal  0.000000e+000  0.000000e+000  1.000000e+000
    outer loop
      vertex  2.250000e+000 -1.581139e+000  1.300000e+001
      vertex  1.000000e+000 -1.118034e+000  1.300000e+001
      vertex  7.187108e-001 -1.316607e+000  1.300000e+001
    endloop
  endfacet
  facet normal  0.000000e+000  0.000000e+000  1.000000e+000
    outer loop
      vertex  2.250000e+000 -1.581139e+000  1.300000e+001
      vertex  7.187108e-001 -1.316607e+000  1.300000e+001
      vertex  3.995519e-001 -1.445807e+000  1.300000e+001
    endloop
  endfacet
  facet normal  0.000000e+000  0.000000e+000  1.000000e+000
    outer loop
      vertex  2.250000e+000 -1.581139e+000  1.300000e+001
      vertex  3.995519e-001 -1.445807e+000  1.300000e+001
      vertex  5.934020e-002 -1.498826e+000  1.300000e+001
    endloop
  endfacet
  facet normal  0.000000e+000  0.000000e+000  1.000000e+000
    outer loop
      vertex -2.147958e+000 -1.717201e+000  1.300000e+001
      vertex -1.829345e+000 -2.053289e+000  1.300000e+001
      vertex -1.458854e+000 -2.331147e+000  1.300000e+001
    endloop
  endfacet
  facet normal  0.000000e+000  0.000000e+000  1.000000e+000
    outer loop
      vertex -2.147958e+000 -1.717201e+000  1.300000e+001
      vertex -1.458854e+000 -2.331147e+000  1.300000e+001
      vertex -1.046990e+000 -2.542895e+000  1.300000e+001
    endloop
  endfacet
  facet normal  0.000000e+000  0.000000e+000  1.000000e+000
    outer loop
      vertex -2.147958e+000 -1.717201e+000  1.300000e+001
      vertex -1.046990e+000 -2.542895e+000  1.300000e+001
      vertex -6.054336e-001 -2.682527e+000  1.300000e+001
    endloop
  endfacet
  facet normal  0.000000e+000  0.000000e+000  1.000000e+000
    outer loop
      vertex  5.934020e-002 -1.498826e+000  1.300000e+001
      vertex  3.161788e-001 -2.731763e+000  1.300000e+001
      vertex  7.700986e-001 -2.639971e+000  1.300000e+001
    endloop
  endfacet
  facet normal  0.000000e+000  0.000000e+000  1.000000e+000
    outer loop
      vertex  5.934020e-002 -1.498826e+000  1.300000e+001
      vertex  7.700986e-001 -2.639971e+000  1.300000e+001
      vertex  1.202179e+000 -2.473311e+000  1.300000e+001
    endloop
  endfacet
  facet normal  0.000000e+000  0.000000e+000  1.000000e+000
    outer loop
      vertex  5.934020e-002 -1.498826e+000  1.300000e+001
      vertex  1.202179e+000 -2.473311e+000  1.300000e+001
      vertex  1.600166e+000 -2.236508e+000  1.300000e+001
    endloop
  endfacet
  facet normal  0.000000e+000  0.000000e+000  1.000000e+000
    outer loop
      vertex  5.934020e-002 -1.498826e+000  1.300000e+001
      vertex  1.600166e+000 -2.236508e+000  1.300000e+001
      vertex  1.952773e+000 -1.936280e+000  1.300000e+001
    endloop
  endfacet
  facet normal  0.000000e+000  0.000000e+000  1.000000e+000
    outer loop
      vertex  5.934020e-002 -1.498826e+000  1.300000e+001
      vertex  1.952773e+000 -1.936280e+000  1.300000e+001
      vertex  2.250000e+000 -1.581139e+000  1.300000e+001
    endloop
  endfacet
  facet normal  0.000000e+000  0.000000e+000  1.000000e+000
    outer loop
      vertex -2.147958e+000  1.717201e+000  1.300000e+001
      vertex -2.405655e+000  1.332414e+000  1.300000e+001
      vertex -6.123725e-001  1.369306e+000  1.300000e+001
    endloop
  endfacet
  facet normal  0.000000e+000  0.000000e+000  1.000000e+000
    outer loop
      vertex -2.147958e+000  1.717201e+000  1.300000e+001
      vertex -6.123725e-001  1.369306e+000  1.300000e+001
      vertex -2.839982e-001  1.472870e+000  1.300000e+001
    endloop
  endfacet
  facet normal  0.000000e+000  0.000000e+000  1.000000e+000
    outer loop
      vertex -2.147958e+000  1.717201e+000  1.300000e+001
      vertex -2.839982e-001  1.472870e+000  1.300000e+001
      vertex -6.054336e-001  2.682527e+000  1.300000e+001
    endloop
  endfacet
  facet normal  0.000000e+000  0.000000e+000  1.000000e+000
    outer loop
      vertex -2.147958e+000  1.717201e+000  1.300000e+001
      vertex -6.054336e-001  2.682527e+000  1.300000e+001
      vertex -1.046990e+000  2.542895e+000  1.300000e+001
    endloop
  endfacet
  facet normal  0.000000e+000  0.000000e+000  1.000000e+000
    outer loop
      vertex -2.147958e+000  1.717201e+000  1.300000e+001
      vertex -1.046990e+000  2.542895e+000  1.300000e+001
      vertex -1.458854e+000  2.331147e+000  1.300000e+001
    endloop
  endfacet
  facet normal  0.000000e+000  0.000000e+000  1.000000e+000
    outer loop
      vertex -2.147958e+000  1.717201e+000  1.300000e+001
      vertex -1.458854e+000  2.331147e+000  1.300000e+001
      vertex -1.829345e+000  2.053289e+000  1.300000e+001
    endloop
  endfacet
  facet normal  0.000000e+000  0.000000e+000  1.000000e+000
    outer loop
      vertex  5.934020e-002  1.498826e+000  1.300000e+001
      vertex  2.250000e+000  1.581139e+000  1.300000e+001
      vertex  1.952773e+000  1.936280e+000  1.300000e+001
    endloop
  endfacet
  facet normal  0.000000e+000  0.000000e+000  1.000000e+000
    outer loop
      vertex  5.934020e-002  1.498826e+000  1.300000e+001
      vertex  1.952773e+000  1.936280e+000  1.300000e+001
      vertex  1.600166e+000  2.236508e+000  1.300000e+001
    endloop
  endfacet
  facet normal  0.000000e+000  0.000000e+000  1.000000e+000
    outer loop
      vertex  5.934020e-002  1.498826e+000  1.300000e+001
      vertex  1.600166e+000  2.236508e+000  1.300000e+001
      vertex  1.202179e+000  2.473311e+000  1.300000e+001
    endloop
  endfacet
  facet normal  0.000000e+000  0.000000e+000  1.000000e+000
    outer loop
      vertex  5.934020e-002  1.498826e+000  1.300000e+001
      vertex  1.202179e+000  2.473311e+000  1.300000e+001
      vertex  7.700986e-001  2.639971e+000  1.300000e+001
    endloop
  endfacet
  facet normal  0.000000e+000  0.000000e+000  1.000000e+000
    outer loop
      vertex  5.934020e-002  1.498826e+000  1.300000e+001
      vertex  7.700986e-001  2.639971e+000  1.300000e+001
      vertex  3.161788e-001  2.731763e+000  1.300000e+001
    endloop
  endfacet
  facet normal  0.000000e+000  0.000000e+000  1.000000e+000
    outer loop
      vertex  5.934020e-002  1.498826e+000  1.300000e+001
      vertex  3.161788e-001  2.731763e+000  1.300000e+001
      vertex -1.467077e-001  2.746084e+000  1.300000e+001
    endloop
  endfacet
  facet normal  0.000000e+000  0.000000e+000  1.000000e+000
    outer loop
      vertex  5.934020e-002  1.498826e+000  1.300000e+001
      vertex -1.467077e-001  2.746084e+000  1.300000e+001
      vertex -6.054336e-001  2.682527e+000  1.300000e+001
    endloop
  endfacet
  facet normal  0.000000e+000  0.000000e+000  1.000000e+000
    outer loop
      vertex  5.934020e-002  1.498826e+000  1.300000e+001
      vertex -6.054336e-001  2.682527e+000  1.300000e+001
      vertex -2.839982e-001  1.472870e+000  1.300000e+001
    endloop
  endfacet
  facet normal  0.000000e+000  0.000000e+000  1.000000e+000
    outer loop
      vertex  3.161788e-001 -2.731763e+000  1.300000e+001
      vertex  5.934020e-002 -1.498826e+000  1.300000e+001
      vertex -1.467077e-001 -2.746084e+000  1.300000e+001
    endloop
  endfacet
  facet normal  0.000000e+000  0.000000e+000  1.000000e+000
    outer loop
      vertex -1.467077e-001 -2.746084e+000  1.300000e+001
      vertex  5.934020e-002 -1.498826e+000  1.300000e+001
      vertex -2.839982e-001 -1.472870e+000  1.300000e+001
    endloop
  endfacet
  facet normal  0.000000e+000  0.000000e+000  1.000000e+000
    outer loop
      vertex -1.467077e-001 -2.746084e+000  1.300000e+001
      vertex -2.839982e-001 -1.472870e+000  1.300000e+001
      vertex -6.054336e-001 -2.682527e+000  1.300000e+001
    endloop
  endfacet
  facet normal  0.000000e+000  0.000000e+000  1.000000e+000
    outer loop
      vertex -6.054336e-001 -2.682527e+000  1.300000e+001
      vertex -2.839982e-001 -1.472870e+000  1.300000e+001
      vertex -2.147958e+000 -1.717201e+000  1.300000e+001
    endloop
  endfacet
  facet normal  0.000000e+000  0.000000e+000  1.000000e+000
    outer loop
      vertex -6.123725e-001  1.369306e+000  1.300000e+001
      vertex -2.405655e+000  1.332414e+000  1.300000e+001
      vertex -9.084801e-001  1.193593e+000  1.300000e+001
    endloop
  endfacet
  facet normal  0.000000e+000  0.000000e+000  1.000000e+000
    outer loop
      vertex -9.084801e-001  1.193593e+000  1.300000e+001
      vertex -2.405655e+000  1.332414e+000  1.300000e+001
      vertex -2.595128e+000  9.098398e-001  1.300000e+001
    endloop
  endfacet
  facet normal  0.000000e+000  0.000000e+000  1.000000e+000
    outer loop
      vertex -9.084801e-001  1.193593e+000  1.300000e+001
      vertex -2.595128e+000  9.098398e-001  1.300000e+001
      vertex -1.156719e+000  9.549876e-001  1.300000e+001
    endloop
  endfacet
  facet normal  0.000000e+000  0.000000e+000  1.000000e+000
    outer loop
      vertex -1.156719e+000  9.549876e-001  1.300000e+001
      vertex -2.595128e+000  9.098398e-001  1.300000e+001
      vertex -1.344009e+000  6.660630e-001  1.300000e+001
    endloop
  endfacet
  facet normal  0.000000e+000  0.000000e+000  1.000000e+000
    outer loop
      vertex -1.344009e+000  6.660630e-001  1.300000e+001
      vertex -2.595128e+000  9.098398e-001  1.300000e+001
      vertex -2.711006e+000  4.614634e-001  1.300000e+001
    endloop
  endfacet
  facet normal  0.000000e+000  0.000000e+000  1.000000e+000
    outer loop
      vertex -1.344009e+000  6.660630e-001  1.300000e+001
      vertex -2.711006e+000  4.614634e-001  1.300000e+001
      vertex -1.460482e+000  3.420428e-001  1.300000e+001
    endloop
  endfacet
  facet normal  0.000000e+000  0.000000e+000  1.000000e+000
    outer loop
      vertex -1.460482e+000  3.420428e-001  1.300000e+001
      vertex -2.711006e+000  4.614634e-001  1.300000e+001
      vertex -1.500000e+000  1.836910e-016  1.300000e+001
    endloop
  endfacet
  facet normal  0.000000e+000  0.000000e+000  1.000000e+000
    outer loop
      vertex -1.500000e+000  1.836910e-016  1.300000e+001
      vertex -2.711006e+000  4.614634e-001  1.300000e+001
      vertex -2.750000e+000  1.558012e-015  1.300000e+001
    endloop
  endfacet
  facet normal  0.000000e+000  0.000000e+000  1.000000e+000
    outer loop
      vertex -1.500000e+000  1.836910e-016  1.300000e+001
      vertex -2.750000e+000  1.558012e-015  1.300000e+001
      vertex -1.460482e+000 -3.420428e-001  1.300000e+001
    endloop
  endfacet
  facet normal  0.000000e+000  0.000000e+000  1.000000e+000
    outer loop
      vertex -1.460482e+000 -3.420428e-001  1.300000e+001
      vertex -2.750000e+000  1.558012e-015  1.300000e+001
      vertex -2.711006e+000 -4.614634e-001  1.300000e+001
    endloop
  endfacet
  facet normal  0.000000e+000  0.000000e+000  1.000000e+000
    outer loop
      vertex -1.460482e+000 -3.420428e-001  1.300000e+001
      vertex -2.711006e+000 -4.614634e-001  1.300000e+001
      vertex -1.344009e+000 -6.660630e-001  1.300000e+001
    endloop
  endfacet
  facet normal  0.000000e+000  0.000000e+000  1.000000e+000
    outer loop
      vertex -1.344009e+000 -6.660630e-001  1.300000e+001
      vertex -2.711006e+000 -4.614634e-001  1.300000e+001
      vertex -2.595128e+000 -9.098398e-001  1.300000e+001
    endloop
  endfacet
  facet normal  0.000000e+000  0.000000e+000  1.000000e+000
    outer loop
      vertex -1.344009e+000 -6.660630e-001  1.300000e+001
      vertex -2.595128e+000 -9.098398e-001  1.300000e+001
      vertex -1.156719e+000 -9.549876e-001  1.300000e+001
    endloop
  endfacet
  facet normal  0.000000e+000  0.000000e+000  1.000000e+000
    outer loop
      vertex -1.156719e+000 -9.549876e-001  1.300000e+001
      vertex -2.595128e+000 -9.098398e-001  1.300000e+001
      vertex -9.084801e-001 -1.193593e+000  1.300000e+001
    endloop
  endfacet
  facet normal  0.000000e+000  0.000000e+000  1.000000e+000
    outer loop
      vertex -9.084801e-001 -1.193593e+000  1.300000e+001
      vertex -2.595128e+000 -9.098398e-001  1.300000e+001
      vertex -2.405655e+000 -1.332414e+000  1.300000e+001
    endloop
  endfacet
  facet normal  0.000000e+000  0.000000e+000  1.000000e+000
    outer loop
      vertex -9.084801e-001 -1.193593e+000  1.300000e+001
      vertex -2.405655e+000 -1.332414e+000  1.300000e+001
      vertex -6.123725e-001 -1.369306e+000  1.300000e+001
    endloop
  endfacet
  facet normal  0.000000e+000  0.000000e+000  1.000000e+000
    outer loop
      vertex -2.147958e+000 -1.717201e+000  1.300000e+001
      vertex -2.839982e-001 -1.472870e+000  1.300000e+001
      vertex -2.405655e+000 -1.332414e+000  1.300000e+001
    endloop
  endfacet
  facet normal  0.000000e+000  0.000000e+000  1.000000e+000
    outer loop
      vertex -2.405655e+000 -1.332414e+000  1.300000e+001
      vertex -2.839982e-001 -1.472870e+000  1.300000e+001
      vertex -6.123725e-001 -1.369306e+000  1.300000e+001
    endloop
  endfacet
  facet normal -5.767147e-001  8.169456e-001  0.000000e+000
    outer loop
      vertex  1.000000e+000 -1.118034e+000  1.300000e+001
      vertex  1.000000e+000 -1.118034e+000  0.000000e+000
      vertex  7.187108e-001 -1.316607e+000  1.300000e+001
    endloop
  endfacet
  facet normal -5.767147e-001  8.169456e-001  0.000000e+000
    outer loop
      vertex  7.187108e-001 -1.316607e+000  1.300000e+001
      vertex  1.000000e+000 -1.118034e+000  0.000000e+000
      vertex  7.187108e-001 -1.316607e+000  0.000000e+000
    endloop
  endfacet
  facet normal -3.752337e-001  9.269302e-001  0.000000e+000
    outer loop
      vertex  7.187108e-001 -1.316607e+000  1.300000e+001
      vertex  7.187108e-001 -1.316607e+000  0.000000e+000
      vertex  3.995519e-001 -1.445807e+000  1.300000e+001
    endloop
  endfacet
  facet normal -3.752337e-001  9.269302e-001  0.000000e+000
    outer loop
      vertex  3.995519e-001 -1.445807e+000  1.300000e+001
      vertex  7.187108e-001 -1.316607e+000  0.000000e+000
      vertex  3.995519e-001 -1.445807e+000  0.000000e+000
    endloop
  endfacet
  facet normal -1.539817e-001  9.880737e-001  0.000000e+000
    outer loop
      vertex  3.995519e-001 -1.445807e+000  1.300000e+001
      vertex  3.995519e-001 -1.445807e+000  0.000000e+000
      vertex  5.934020e-002 -1.498826e+000  1.300000e+001
    endloop
  endfacet
  facet normal -1.539817e-001  9.880737e-001  0.000000e+000
    outer loop
      vertex  5.934020e-002 -1.498826e+000  1.300000e+001
      vertex  3.995519e-001 -1.445807e+000  0.000000e+000
      vertex  5.934020e-002 -1.498826e+000  0.000000e+000
    endloop
  endfacet
  facet normal  7.538421e-002  9.971545e-001  0.000000e+000
    outer loop
      vertex  5.934020e-002 -1.498826e+000  1.300000e+001
      vertex  5.934020e-002 -1.498826e+000  0.000000e+000
      vertex -2.839982e-001 -1.472870e+000  1.300000e+001
    endloop
  endfacet
  facet normal  7.538421e-002  9.971545e-001  0.000000e+000
    outer loop
      vertex -2.839982e-001 -1.472870e+000  1.300000e+001
      vertex  5.934020e-002 -1.498826e+000  0.000000e+000
      vertex -2.839982e-001 -1.472870e+000  0.000000e+000
    endloop
  endfacet
  facet normal  3.007776e-001  9.536943e-001  0.000000e+000
    outer loop
      vertex -2.839982e-001 -1.472870e+000  1.300000e+001
      vertex -2.839982e-001 -1.472870e+000  0.000000e+000
      vertex -6.123725e-001 -1.369306e+000  1.300000e+001
    endloop
  endfacet
  facet normal  3.007776e-001  9.536943e-001  0.000000e+000
    outer loop
      vertex -6.123725e-001 -1.369306e+000  1.300000e+001
      vertex -2.839982e-001 -1.472870e+000  0.000000e+000
      vertex -6.123725e-001 -1.369306e+000  0.000000e+000
    endloop
  endfacet
  facet normal  5.103232e-001  8.599827e-001  0.000000e+000
    outer loop
      vertex -6.123725e-001 -1.369306e+000  1.300000e+001
      vertex -6.123725e-001 -1.369306e+000  0.000000e+000
      vertex -9.084801e-001 -1.193593e+000  1.300000e+001
    endloop
  endfacet
  facet normal  5.103232e-001  8.599827e-001  0.000000e+000
    outer loop
      vertex -9.084801e-001 -1.193593e+000  1.300000e+001
      vertex -6.123725e-001 -1.369306e+000  0.000000e+000
      vertex -9.084801e-001 -1.193593e+000  0.000000e+000
    endloop
  endfacet
  facet normal  6.929790e-001  7.209578e-001  0.000000e+000
    outer loop
      vertex -9.084801e-001 -1.193593e+000  1.300000e+001
      vertex -9.084801e-001 -1.193593e+000  0.000000e+000
      vertex -1.156719e+000 -9.549876e-001  1.300000e+001
    endloop
  endfacet
  facet normal  6.929790e-001  7.209578e-001  0.000000e+000
    outer loop
      vertex -1.156719e+000 -9.549876e-001  1.300000e+001
      vertex -9.084801e-001 -1.193593e+000  0.000000e+000
      vertex -1.156719e+000 -9.549876e-001  0.000000e+000
    endloop
  endfacet
  facet normal  8.391212e-001  5.439445e-001  0.000000e+000
    outer loop
      vertex -1.156719e+000 -9.549876e-001  1.300000e+001
      vertex -1.156719e+000 -9.549876e-001  0.000000e+000
      vertex -1.344009e+000 -6.660630e-001  1.300000e+001
    endloop
  endfacet
  facet normal  8.391212e-001  5.439445e-001  0.000000e+000
    outer loop
      vertex -1.344009e+000 -6.660630e-001  1.300000e+001
      vertex -1.156719e+000 -9.549876e-001  0.000000e+000
      vertex -1.344009e+000 -6.660630e-001  0.000000e+000
    endloop
  endfacet
  facet normal  9.410489e-001  3.382706e-001  0.000000e+000
    outer loop
      vertex -1.344009e+000 -6.660630e-001  1.300000e+001
      vertex -1.344009e+000 -6.660630e-001  0.000000e+000
      vertex -1.460482e+000 -3.420428e-001  1.300000e+001
    endloop
  endfacet
  facet normal  9.410489e-001  3.382706e-001  0.000000e+000
    outer loop
      vertex -1.460482e+000 -3.420428e-001  1.300000e+001
      vertex -1.344009e+000 -6.660630e-001  0.000000e+000
      vertex -1.460482e+000 -3.420428e-001  0.000000e+000
    endloop
  endfacet
  facet normal  9.933918e-001  1.147728e-001  0.000000e+000
    outer loop
      vertex -1.460482e+000 -3.420428e-001  1.300000e+001
      vertex -1.460482e+000 -3.420428e-001  0.000000e+000
      vertex -1.500000e+000  1.836910e-016  1.300000e+001
    endloop
  endfacet
  facet normal  9.933918e-001  1.147728e-001  0.000000e+000
    outer loop
      vertex -1.500000e+000  1.836910e-016  1.300000e+001
      vertex -1.460482e+000 -3.420428e-001  0.000000e+000
      vertex -1.500000e+000  1.836910e-016  0.000000e+000
    endloop
  endfacet
  facet normal  9.933918e-001 -1.147728e-001  0.000000e+000
    outer loop
      vertex -1.500000e+000  1.836910e-016  1.300000e+001
      vertex -1.500000e+000  1.836910e-016  0.000000e+000
      vertex -1.460482e+000  3.420428e-001  1.300000e+001
    endloop
  endfacet
  facet normal  9.933918e-001 -1.147728e-001  0.000000e+000
    outer loop
      vertex -1.460482e+000  3.420428e-001  1.300000e+001
      vertex -1.500000e+000  1.836910e-016  0.000000e+000
      vertex -1.460482e+000  3.420428e-001  0.000000e+000
    endloop
  endfacet
  facet normal  9.410489e-001 -3.382706e-001  0.000000e+000
    outer loop
      vertex -1.460482e+000  3.420428e-001  1.300000e+001
      vertex -1.460482e+000  3.420428e-001  0.000000e+000
      vertex -1.344009e+000  6.660630e-001  1.300000e+001
    endloop
  endfacet
  facet normal  9.410489e-001 -3.382706e-001  0.000000e+000
    outer loop
      vertex -1.344009e+000  6.660630e-001  1.300000e+001
      vertex -1.460482e+000  3.420428e-001  0.000000e+000
      vertex -1.344009e+000  6.660630e-001  0.000000e+000
    endloop
  endfacet
  facet normal  8.391212e-001 -5.439445e-001  0.000000e+000
    outer loop
      vertex -1.344009e+000  6.660630e-001  1.300000e+001
      vertex -1.344009e+000  6.660630e-001  0.000000e+000
      vertex -1.156719e+000  9.549876e-001  1.300000e+001
    endloop
  endfacet
  facet normal  8.391212e-001 -5.439445e-001  0.000000e+000
    outer loop
      vertex -1.156719e+000  9.549876e-001  1.300000e+001
      vertex -1.344009e+000  6.660630e-001  0.000000e+000
      vertex -1.156719e+000  9.549876e-001  0.000000e+000
    endloop
  endfacet
  facet normal  6.929790e-001 -7.209578e-001  0.000000e+000
    outer loop
      vertex -1.156719e+000  9.549876e-001  1.300000e+001
      vertex -1.156719e+000  9.549876e-001  0.000000e+000
      vertex -9.084801e-001  1.193593e+000  1.300000e+001
    endloop
  endfacet
  facet normal  6.929790e-001 -7.209578e-001  0.000000e+000
    outer loop
      vertex -9.084801e-001  1.193593e+000  1.300000e+001
      vertex -1.156719e+000  9.549876e-001  0.000000e+000
      vertex -9.084801e-001  1.193593e+000  0.000000e+000
    endloop
  endfacet
  facet normal  5.103232e-001 -8.599827e-001  0.000000e+000
    outer loop
      vertex -9.084801e-001  1.193593e+000  1.300000e+001
      vertex -9.084801e-001  1.193593e+000  0.000000e+000
      vertex -6.123725e-001  1.369306e+000  1.300000e+001
    endloop
  endfacet
  facet normal  5.103232e-001 -8.599827e-001  0.000000e+000
    outer loop
      vertex -6.123725e-001  1.369306e+000  1.300000e+001
      vertex -9.084801e-001  1.193593e+000  0.000000e+000
      vertex -6.123725e-001  1.369306e+000  0.000000e+000
    endloop
  endfacet
  facet normal  3.007776e-001 -9.536943e-001  0.000000e+000
    outer loop
      vertex -6.123725e-001  1.369306e+000  1.300000e+001
      vertex -6.123725e-001  1.369306e+000  0.000000e+000
      vertex -2.839982e-001  1.472870e+000  1.300000e+001
    endloop
  endfacet
  facet normal  3.007776e-001 -9.536943e-001  0.000000e+000
    outer loop
      vertex -2.839982e-001  1.472870e+000  1.300000e+001
      vertex -6.123725e-001  1.369306e+000  0.000000e+000
      vertex -2.839982e-001  1.472870e+000  0.000000e+000
    endloop
  endfacet
  facet normal  7.538421e-002 -9.971545e-001  0.000000e+000
    outer loop
      vertex -2.839982e-001  1.472870e+000  1.300000e+001
      vertex -2.839982e-001  1.472870e+000  0.000000e+000
      vertex  5.934020e-002  1.498826e+000  1.300000e+001
    endloop
  endfacet
  facet normal  7.538421e-002 -9.971545e-001  0.000000e+000
    outer loop
      vertex  5.934020e-002  1.498826e+000  1.300000e+001
      vertex -2.839982e-001  1.472870e+000  0.000000e+000
      vertex  5.934020e-002  1.498826e+000  0.000000e+000
    endloop
  endfacet
  facet normal -1.539817e-001 -9.880737e-001  0.000000e+000
    outer loop
      vertex  5.934020e-002  1.498826e+000  1.300000e+001
      vertex  5.934020e-002  1.498826e+000  0.000000e+000
      vertex  3.995519e-001  1.445807e+000  1.300000e+001
    endloop
  endfacet
  facet normal -1.539817e-001 -9.880737e-001  0.000000e+000
    outer loop
      vertex  3.995519e-001  1.445807e+000  1.300000e+001
      vertex  5.934020e-002  1.498826e+000  0.000000e+000
      vertex  3.995519e-001  1.445807e+000  0.000000e+000
    endloop
  endfacet
  facet normal -3.752337e-001 -9.269302e-001  0.000000e+000
    outer loop
      vertex  3.995519e-001  1.445807e+000  1.300000e+001
      vertex  3.995519e-001  1.445807e+000  0.000000e+000
      vertex  7.187108e-001  1.316607e+000  1.300000e+001
    endloop
  endfacet
  facet normal -3.752337e-001 -9.269302e-001  0.000000e+000
    outer loop
      vertex  7.187108e-001  1.316607e+000  1.300000e+001
      vertex  3.995519e-001  1.445807e+000  0.000000e+000
      vertex  7.187108e-001  1.316607e+000  0.000000e+000
    endloop
  endfacet
  facet normal -5.767147e-001 -8.169456e-001  0.000000e+000
    outer loop
      vertex  7.187108e-001  1.316607e+000  1.300000e+001
      vertex  7.187108e-001  1.316607e+000  0.000000e+000
      vertex  1.000000e+000  1.118034e+000  1.300000e+001
    endloop
  endfacet
  facet normal -5.767147e-001 -8.169456e-001  0.000000e+000
    outer loop
      vertex  1.000000e+000  1.118034e+000  1.300000e+001
      vertex  7.187108e-001  1.316607e+000  0.000000e+000
      vertex  1.000000e+000  1.118034e+000  0.000000e+000
    endloop
  endfacet
  facet normal -1.000000e+000  0.000000e+000  0.000000e+000
    outer loop
      vertex  1.000000e+000  1.118034e+000  0.000000e+000
      vertex  1.000000e+000 -1.118034e+000  0.000000e+000
      vertex  1.000000e+000  1.118034e+000  1.300000e+001
    endloop
  endfacet
  facet normal -1.000000e+000  0.000000e+000  0.000000e+000
    outer loop
      vertex  1.000000e+000  1.118034e+000  1.300000e+001
      vertex  1.000000e+000 -1.118034e+000  0.000000e+000
      vertex  1.000000e+000 -1.118034e+000  1.300000e+001
    endloop
  endfacet
endsolid CATIA STL
